<svg xmlns="http://www.w3.org/2000/svg" viewBox="62 62 276 276">
  <path
    d="M 320.000 200.000 L 319.909 202.093 L 319.635 204.178 L 319.179 206.246 L 318.543 208.289 L 317.727 210.300 L 316.735 212.269 L 315.568 214.190 L 314.229 216.054 L 312.722 217.853 L 311.050 219.581 L 309.218 221.230 L 307.230 222.792 L 305.091 224.262 L 302.806 225.633 L 300.382 226.897 L 297.824 228.050 L 295.138 229.086 L 292.331 230.000 L 289.409 230.786 L 286.382 231.440 L 283.254 231.958 L 280.035 232.336 L 276.732 232.571 L 273.354 232.659 L 269.908 232.598 L 266.402 232.387 L 262.846 232.022 L 259.249 231.503 L 255.617 230.829 L 251.962 230.000 L 248.290 229.015 L 244.611 227.876 L 240.934 226.583 L 237.268 225.137 L 233.620 223.541 L 230.000 221.796 L 226.416 219.906 L 222.876 217.873 L 219.389 215.701 L 215.963 213.394 L 212.604 210.957 L 209.322 208.393 L 206.122 205.709 L 203.013 202.909 L 200.000 200.000 L 197.091 196.987 L 194.291 193.878 L 191.607 190.678 L 189.043 187.396 L 186.606 184.037 L 184.299 180.611 L 182.127 177.124 L 180.094 173.584 L 178.204 170.000 L 176.459 166.380 L 174.863 162.732 L 173.417 159.066 L 172.124 155.389 L 170.985 151.710 L 170.000 148.038 L 169.171 144.383 L 168.497 140.751 L 167.978 137.154 L 167.613 133.598 L 167.402 130.092 L 167.341 126.646 L 167.429 123.268 L 167.664 119.965 L 168.042 116.746 L 168.560 113.618 L 169.214 110.591 L 170.000 107.669 L 170.914 104.862 L 171.950 102.176 L 173.103 99.618 L 174.367 97.194 L 175.738 94.909 L 177.208 92.770 L 178.770 90.782 L 180.419 88.950 L 182.147 87.278 L 183.946 85.771 L 185.810 84.432 L 187.731 83.265 L 189.700 82.273 L 191.711 81.457 L 193.754 80.821 L 195.822 80.365 L 197.907 80.091 L 200.000 80.000 L 202.093 80.091 L 204.178 80.365 L 206.246 80.821 L 208.289 81.457 L 210.300 82.273 L 212.269 83.265 L 214.190 84.432 L 216.054 85.771 L 217.853 87.278 L 219.581 88.950 L 221.230 90.782 L 222.792 92.770 L 224.262 94.909 L 225.633 97.194 L 226.897 99.618 L 228.050 102.176 L 229.086 104.862 L 230.000 107.669 L 230.786 110.591 L 231.440 113.618 L 231.958 116.746 L 232.336 119.965 L 232.571 123.268 L 232.659 126.646 L 232.598 130.092 L 232.387 133.598 L 232.022 137.154 L 231.503 140.751 L 230.829 144.383 L 230.000 148.038 L 229.015 151.710 L 227.876 155.389 L 226.583 159.066 L 225.137 162.732 L 223.541 166.380 L 221.796 170.000 L 219.906 173.584 L 217.873 177.124 L 215.701 180.611 L 213.394 184.037 L 210.957 187.396 L 208.393 190.678 L 205.709 193.878 L 202.909 196.987 L 200.000 200.000 L 196.987 202.909 L 193.878 205.709 L 190.678 208.393 L 187.396 210.957 L 184.037 213.394 L 180.611 215.701 L 177.124 217.873 L 173.584 219.906 L 170.000 221.796 L 166.380 223.541 L 162.732 225.137 L 159.066 226.583 L 155.389 227.876 L 151.710 229.015 L 148.038 230.000 L 144.383 230.829 L 140.751 231.503 L 137.154 232.022 L 133.598 232.387 L 130.092 232.598 L 126.646 232.659 L 123.268 232.571 L 119.965 232.336 L 116.746 231.958 L 113.618 231.440 L 110.591 230.786 L 107.669 230.000 L 104.862 229.086 L 102.176 228.050 L 99.618 226.897 L 97.194 225.633 L 94.909 224.262 L 92.770 222.792 L 90.782 221.230 L 88.950 219.581 L 87.278 217.853 L 85.771 216.054 L 84.432 214.190 L 83.265 212.269 L 82.273 210.300 L 81.457 208.289 L 80.821 206.246 L 80.365 204.178 L 80.091 202.093 L 80.000 200.000 L 80.091 197.907 L 80.365 195.822 L 80.821 193.754 L 81.457 191.711 L 82.273 189.700 L 83.265 187.731 L 84.432 185.810 L 85.771 183.946 L 87.278 182.147 L 88.950 180.419 L 90.782 178.770 L 92.770 177.208 L 94.909 175.738 L 97.194 174.367 L 99.618 173.103 L 102.176 171.950 L 104.862 170.914 L 107.669 170.000 L 110.591 169.214 L 113.618 168.560 L 116.746 168.042 L 119.965 167.664 L 123.268 167.429 L 126.646 167.341 L 130.092 167.402 L 133.598 167.613 L 137.154 167.978 L 140.751 168.497 L 144.383 169.171 L 148.038 170.000 L 151.710 170.985 L 155.389 172.124 L 159.066 173.417 L 162.732 174.863 L 166.380 176.459 L 170.000 178.204 L 173.584 180.094 L 177.124 182.127 L 180.611 184.299 L 184.037 186.606 L 187.396 189.043 L 190.678 191.607 L 193.878 194.291 L 196.987 197.091 L 200.000 200.000 L 202.909 203.013 L 205.709 206.122 L 208.393 209.322 L 210.957 212.604 L 213.394 215.963 L 215.701 219.389 L 217.873 222.876 L 219.906 226.416 L 221.796 230.000 L 223.541 233.620 L 225.137 237.268 L 226.583 240.934 L 227.876 244.611 L 229.015 248.290 L 230.000 251.962 L 230.829 255.617 L 231.503 259.249 L 232.022 262.846 L 232.387 266.402 L 232.598 269.908 L 232.659 273.354 L 232.571 276.732 L 232.336 280.035 L 231.958 283.254 L 231.440 286.382 L 230.786 289.409 L 230.000 292.331 L 229.086 295.138 L 228.050 297.824 L 226.897 300.382 L 225.633 302.806 L 224.262 305.091 L 222.792 307.230 L 221.230 309.218 L 219.581 311.050 L 217.853 312.722 L 216.054 314.229 L 214.190 315.568 L 212.269 316.735 L 210.300 317.727 L 208.289 318.543 L 206.246 319.179 L 204.178 319.635 L 202.093 319.909 L 200.000 320.000 L 197.907 319.909 L 195.822 319.635 L 193.754 319.179 L 191.711 318.543 L 189.700 317.727 L 187.731 316.735 L 185.810 315.568 L 183.946 314.229 L 182.147 312.722 L 180.419 311.050 L 178.770 309.218 L 177.208 307.230 L 175.738 305.091 L 174.367 302.806 L 173.103 300.382 L 171.950 297.824 L 170.914 295.138 L 170.000 292.331 L 169.214 289.409 L 168.560 286.382 L 168.042 283.254 L 167.664 280.035 L 167.429 276.732 L 167.341 273.354 L 167.402 269.908 L 167.613 266.402 L 167.978 262.846 L 168.497 259.249 L 169.171 255.617 L 170.000 251.962 L 170.985 248.290 L 172.124 244.611 L 173.417 240.934 L 174.863 237.268 L 176.459 233.620 L 178.204 230.000 L 180.094 226.416 L 182.127 222.876 L 184.299 219.389 L 186.606 215.963 L 189.043 212.604 L 191.607 209.322 L 194.291 206.122 L 197.091 203.013 L 200.000 200.000 L 203.013 197.091 L 206.122 194.291 L 209.322 191.607 L 212.604 189.043 L 215.963 186.606 L 219.389 184.299 L 222.876 182.127 L 226.416 180.094 L 230.000 178.204 L 233.620 176.459 L 237.268 174.863 L 240.934 173.417 L 244.611 172.124 L 248.290 170.985 L 251.962 170.000 L 255.617 169.171 L 259.249 168.497 L 262.846 167.978 L 266.402 167.613 L 269.908 167.402 L 273.354 167.341 L 276.732 167.429 L 280.035 167.664 L 283.254 168.042 L 286.382 168.560 L 289.409 169.214 L 292.331 170.000 L 295.138 170.914 L 297.824 171.950 L 300.382 173.103 L 302.806 174.367 L 305.091 175.738 L 307.230 177.208 L 309.218 178.770 L 311.050 180.419 L 312.722 182.147 L 314.229 183.946 L 315.568 185.810 L 316.735 187.731 L 317.727 189.700 L 318.543 191.711 L 319.179 193.754 L 319.635 195.822 L 319.909 197.907 L 320.000 200.000 Z"
    fill="none"
    stroke="#2563eb"
    stroke-width="34"
    stroke-linecap="round"
    stroke-linejoin="round"
  />
</svg>